<svg xmlns="http://www.w3.org/2000/svg" xmlns:xlink="http://www.w3.org/1999/xlink" viewBox="0 0 36.95 37.33"><defs><style>.cls-1,.cls-3{fill:none;}.cls-2{clip-path:url(#clip-path);}.cls-3{stroke:#fff;}.cls-4{fill:#fff;}</style><clipPath id="clip-path" transform="translate(0 0)"><rect class="cls-1" width="36.95" height="37.33"/></clipPath></defs><title>calendar</title><g id="Layer_2" data-name="Layer 2"><g id="Layer_1-2" data-name="Layer 1"><g class="cls-2"><ellipse class="cls-3" cx="18.48" cy="18.66" rx="17.98" ry="18.16"/><path class="cls-4" d="M16.51,12.11V13a.4.4,0,1,0,.79,0v-.89h2.35V13a.4.4,0,1,0,.79,0v-.89h2.35V13a.4.4,0,1,0,.79,0v-.89H27a.28.28,0,0,1,.28.28V26.22a.28.28,0,0,1-.28.28H10a.28.28,0,0,1-.28-.28V16.13H25.78a.4.4,0,0,0,0-.79H9.7V12.39a.28.28,0,0,1,.28-.28h3.39V13a.4.4,0,1,0,.79,0v-.89ZM13.77,10a.4.4,0,0,0-.4.4v.88H10a1.07,1.07,0,0,0-1.07,1.07V26.22A1.07,1.07,0,0,0,10,27.29H27A1.07,1.07,0,0,0,28,26.22V12.39A1.07,1.07,0,0,0,27,11.32h-3.4v-.88a.4.4,0,1,0-.79,0v.88H20.44v-.88a.4.4,0,1,0-.79,0v.88H17.3v-.88a.4.4,0,1,0-.79,0v.88H14.17v-.88a.4.4,0,0,0-.4-.4" transform="translate(0 0)"/><path class="cls-4" d="M24,21H21.78V18.71H24Zm0,3H21.78V21.66H24Zm-3-3H18.83V18.71h2.25Zm0,3H18.83V21.66h2.25Zm-3-3H15.87V18.71h2.25Zm0,3H15.87V21.66h2.25Zm-3-3H12.92V18.71h2.25Zm0,3H12.92V21.66h2.25ZM24.39,18H12.57a.35.35,0,0,0-.35.35v5.91a.35.35,0,0,0,.35.35H24.39a.35.35,0,0,0,.35-.35V18.36a.35.35,0,0,0-.35-.35" transform="translate(0 0)"/></g></g></g></svg>