<svg xmlns="http://www.w3.org/2000/svg" xmlns:xlink="http://www.w3.org/1999/xlink" viewBox="0 0 26.99 26.99"><defs><style>.cls-1{fill:none;}.cls-2{clip-path:url(#clip-path);}.cls-3{fill:#fff;}</style><clipPath id="clip-path" transform="translate(0)"><rect class="cls-1" width="26.99" height="26.99"/></clipPath></defs><title>clock</title><g id="Layer_2" data-name="Layer 2"><g id="Layer_1-2" data-name="Layer 1"><g class="cls-2"><path class="cls-3" d="M13.49,25.78A12.28,12.28,0,1,1,25.78,13.49,12.29,12.29,0,0,1,13.49,25.78M13.49,0A13.49,13.49,0,1,0,27,13.49,13.51,13.51,0,0,0,13.49,0" transform="translate(0)"/><path class="cls-3" d="M21.07,14.68a.45.45,0,1,0,0-.89H13.85V5.26a.45.45,0,0,0-.89,0v9a.45.45,0,0,0,.45.44Z" transform="translate(0)"/></g></g></g></svg>